<?xml version="1.0" encoding="utf-8"?>
<!-- Generator: Adobe Illustrator 26.2.1, SVG Export Plug-In . SVG Version: 6.00 Build 0)  -->
<svg version="1.1" id="Layer_1" xmlns="http://www.w3.org/2000/svg" xmlns:xlink="http://www.w3.org/1999/xlink" x="0px" y="0px"
	 viewBox="0 0 256 256" style="enable-background:new 0 0 256 256;" xml:space="preserve">
<style type="text/css">
	.st0{fill:#A4D166;}
	.st1{fill:#FFFFFF;}
</style>
<g>
	<g>
		<circle class="st0" cx="128" cy="128" r="128"/>
	</g>
	<path class="st1" d="M193.58,69.63l-23.91,50.67c-5.23,11.09-10.29,22.48-14.25,32.94h-0.32l-10.36-34.48h-20.66l13.45,57.6h26.44
		l55.1-106.72H193.58z"/>
	<g>
		<path class="st1" d="M50.54,164.85c6.33,3.8,15.36,6.81,25.18,6.81c8.87,0,16.94-4.12,16.94-12.51c0-6.02-4.59-9.98-14.41-15.04
			c-11.4-6.18-22.17-14.41-22.17-28.34c0-21.53,18.84-34.68,42.12-34.68c12.98,0,21.9,2.85,26.5,5.38l-8.45,19
			c-5.49-3.93-14.52-4.85-19.95-4.75c-10.61,0-16.15,5.38-16.15,11.24c0,6.18,6.49,9.98,15.52,15.04
			c12.98,6.81,21.22,15.52,21.22,28.18c0,23.75-19.63,35.94-43.39,35.94c-14.88,0-25.49-3.8-30.56-7.6L50.54,164.85z"/>
	</g>
</g>
</svg>
